<svg xmlns="http://www.w3.org/2000/svg" viewBox="0 0 111 79.36"><defs><style>.cls-1,.cls-4{fill:#7ac3dd;}.cls-1,.cls-2{fill-rule:evenodd;}.cls-2{fill:#ededed;}.cls-3{fill:#39393d;stroke:#39393d;stroke-miterlimit:10;stroke-width:0.25px;}.cls-5{fill:#fff;}</style></defs><title>topgifu-logo</title><g id="レイヤー_1" data-name="レイヤー 1"><path class="cls-1" d="M34.57,59.74c.56.84,1,1.15.45,1.52s-.54.6-.79.88a3.37,3.37,0,0,0-.63,1.61c-.08.51-.14.3-.81.58-1,.44-.74.31-1.48.25-.47,0-.27-.41-1.2-.38s-1.69.93-2,.65a7.16,7.16,0,0,1-.95-1.14c-.5-.65-.92-1.83-1.47-2a6,6,0,0,0-2.64.48c-.49.3-1.07,0-1.29.5s-1.31.74-1.14,1.41c.4,1.55-.33,2-.33,2a4.45,4.45,0,0,1-1-.5,4,4,0,0,1-1-1s-.76-.88-1-.49a5.06,5.06,0,0,1-1,1s-.84-1.44-.49-2,1.07-1,1-1.47.13-.9,0-1.21-.52-.34-.48-.75a1,1,0,0,0-.19-.69,2.43,2.43,0,0,1-.79-.79c-.16-.38-.49-1.47-.49-1.47a1.24,1.24,0,0,1,.19-1.17l.79-.79c.58-.59.53-.78,1.56-.66s1,.31,1.7.07a5.16,5.16,0,0,1,1.65-.39c.93-.11,1.29-.16,1.47-.49s.71-.46.49-1a9.35,9.35,0,0,0-1-1.47s-1-.49-.77-.58-.39-1.32-.21-1.38l.58-.21s.54-1,.4-1.26a10.67,10.67,0,0,1,.49-2.46l1.47-1.47a6.71,6.71,0,0,0,1,1c.35.28.37,1.12,1,.49a2.89,2.89,0,0,0,1-1.47,5.57,5.57,0,0,1,1-2c.27-.26,1.47,0,1.47,0a9.06,9.06,0,0,1,2,.49,7.26,7.26,0,0,0,1.47.49,5.65,5.65,0,0,0,1.65-.15l.93,1.8-.36.61a.59.59,0,0,0-.48.66,1.65,1.65,0,0,1-.38,1.29c-.35.54-.61,1.33-.38,1.68a6.85,6.85,0,0,0,.86.87L34,50.46a2.6,2.6,0,0,1-1,1,6,6,0,0,1-1.86.78l-.1.69a1.44,1.44,0,0,0,.49,1.48c.4.3.75.39,1,1a2.27,2.27,0,0,0,.82,1.3,1,1,0,0,1,.25,1.48s-.66.72-.09,1Z"/><path class="cls-2" d="M46.26,63.09a4.8,4.8,0,0,0,.55,2.09,1.44,1.44,0,0,0,1.47.49c.27,0,.53-2.64.49-2.94s1.11-1.3,1-1.47a2.48,2.48,0,0,0,.49,1,15.27,15.27,0,0,0,1.56.34s.28-.52.41-.83,1.47,0,1.47,0L56,61.66s-1.45-.71-1.18-1a4.8,4.8,0,0,1,1.49-.94c1.9-.55,1.25-.65,1.64-1.36A11.85,11.85,0,0,0,58,56.66a3.55,3.55,0,0,1-1.68-.84,11.67,11.67,0,0,0-1.16-1.43s.29-1.35.07-1.21c-.67.41-2.52-.27-2.52-.27l-1-1.1-1.76.6-.66-.48a.82.82,0,0,0-1-.49,3.33,3.33,0,0,1-1.47,0l-2,1a.51.51,0,0,0-.49.49,5.06,5.06,0,0,1-.49,2c-.09.18-.54.71-.49,1s0,.78.2,1,.83.93.83.93a2.9,2.9,0,0,0,0,2c.42.93.6,2.58.75,2.82A1,1,0,0,0,46.26,63.09Z"/><path class="cls-2" d="M62.52,7.27c.08.16.24-2.29.48-2.45s.23-1.21.23-1.21l1.25-1.74a16.84,16.84,0,0,1,1.47,1,4.35,4.35,0,0,1,1.38,2c.16.55.41.51.88.46a4.72,4.72,0,0,1,.68,0l.5,1.47s-.66,1.63-1.48,2a8.41,8.41,0,0,0-1.47,1c0-.08-.63,1.63-.7,1.85a2.52,2.52,0,0,0-.17,1.7A6,6,0,0,0,66,15.12c.28.27,1.49.94,1.24.86s-1.81,1.27-1.73,1.6-1.14,1.88-1,2.45.49,1.39,0,1.47-3,1-3,1-2,.33-2,.5a8.38,8.38,0,0,1,0,2.45c-.16.24-1,.73-1,1a2.91,2.91,0,0,0,.49,1.47c.33.49,0,1.8,0,2s-.33.32-.49.49a26,26,0,0,1-2.45,1l-1,2s0,.25-1,1-1.39,1.07-1.47,1.48-2.13.57-2,.49-.21-.69-.16-1.35a1.26,1.26,0,0,0-.16-.42,3.44,3.44,0,0,1-.67-1.18c-.24-.73-.49-.82-.49-1.47s-.08-1.23-.49-1-1.8.49-2,1-1.1,1.12-1.48,1.47c-.72.69-1.16,1.58-1.47,1.47s-1.47-.65-1.47-.49-1,.68-1,.49a5.55,5.55,0,0,0-.49-1l-1-.49-.49-.49-1.12,1.37L37,36.23a3.84,3.84,0,0,1-.49-1A5.22,5.22,0,0,1,36.24,33l-.72-.71-.5-.49s1.56-.82,2-1,2.86-.66,2.94-1,1.48-1.48,1.48-1.48l1.47-.49c.25-.08,2.13.41,2.45,0a16.47,16.47,0,0,1,2-2.45c1-.9,2.37-1,2.45-1.47a3.17,3.17,0,0,1,1-2c.82-.82,1.06-1.71,1.47-2a1.63,1.63,0,0,0,.49-1.47,16.21,16.21,0,0,1,.49-2.95,19.3,19.3,0,0,1,3-2c1-.41,2.2-.16,2.94-1s2.05-1.31,2.45-2c.3-.48,1-1.3,1-1.47A4.51,4.51,0,0,1,62.52,7.27Z"/><path class="cls-2" d="M44.35,10.21s1.48-1,1.48-1.47.89-1.06,1-1.47a6.33,6.33,0,0,1,1-1.47,6.74,6.74,0,0,1,0,2.94,4.64,4.64,0,0,0-.49,2c.08,0,.49.33.49.5s1.39-.74,1.47-.5a8,8,0,0,1,0,1.48s-.82.08-1,.49a4.37,4.37,0,0,1-1,2c-.65.58-1.64,1.64-2,1.47a15.36,15.36,0,0,0-1.47-.49,4.92,4.92,0,0,0,1-1.47c.09-.49.25-.41.49-1s-.08-1.64,0-1.47-1,1-1,1-.24.49-.49,0,.65-1.47.49-1.47S44.35,10.21,44.35,10.21Z"/><path class="cls-2" d="M37,36.23s1-1.25,1-1.48a12.2,12.2,0,0,1,1.47-2s1.71,1.14,1.82,1.6c.18.76.9-.23,1.59.1a5.74,5.74,0,0,0,1.13.26l1.54-1.63a2.44,2.44,0,0,0,1.08-1c.39-.9,2-1.17,2-1.17s.68-.39.64.19a4.8,4.8,0,0,0,.34,1.68,3.16,3.16,0,0,0,.69,1.47c.47.36.34,1.15.5,1.48s.38.6,0,.49-1.54.68-2.11,1.14c-.92.76-1.43.93-1.82,1.31s-.15.79-.38,1.64-.07.64.14,1.19S48,42.76,48,42.76s.94.54.81.34.18-.82.49-1,1,1,1,1v2s-.28,1-.49,1.47.35.16.43,1.21c.08,1.25.08,1.87.08,1.87l1.07.85.14.62a.65.65,0,0,1-.38.93c-.84.28-1.21.59-1.83-.08s-.44-.64-1-.49-.52-.1-1,0-1,.25-1,.25,0-.19-1.11.56-.85.66-.85.66a4,4,0,0,1-.49,2c-.61.9-.36.43-.31,1.46a8.16,8.16,0,0,1-.3,2.74,17.54,17.54,0,0,0-.7,2.22c-.18.8-.2.62-1.57,1.14-.73.28-.62.94-1.37,1.53s-1.43.85-1.85,1.17-2-.44-2.24-.45-.6.37-1,.49-1-1.19-1-1.19A4.76,4.76,0,0,1,34,62.24c1.47-1.47,1.46-.91.76-2.27-.25-.47-1.82-.73-1.45-1.34s.75-1.11.2-1.79c-.23-.29-.52-.17-.83-1.06s-.36-.89-1.13-1.39a1.18,1.18,0,0,1-.51-1.33,1.69,1.69,0,0,1,.12-.68c.16-.39.41-.14,1.13-.51a12.26,12.26,0,0,0,1.57-1.19s.61-.91.51-1.31c-.06-.23-.65-.62-.65-.62s-.25.12-.3-.64c0-.47.3-.73.58-1.58s.25-1.29.49-1.47.65-.61.49-1-.49-1-.49-1l-.31-.64.8-1.53,1.48-1.27a11.33,11.33,0,0,0,.35-1.42C36.89,37.88,37,36.23,37,36.23Z"/><path class="cls-2" d="M23.24,34.75l.06-1.35s.07-.3.92-1.1a2.24,2.24,0,0,1,2-.49l-.49,2a3.46,3.46,0,0,0,0,1c.07.5,1.07,1.1,1.47,1.48a2.69,2.69,0,0,0,2,.49,2.23,2.23,0,0,0,1.48-1c.38-.58.94-.75,1-1.48s-.13-1.22.49-1.47a6.7,6.7,0,0,0,1.47-1H35a5.25,5.25,0,0,0,1,1c.23.13.19,1.09.19,1.09a2,2,0,0,0,.3,1.36A2.24,2.24,0,0,1,37,36.72a6.18,6.18,0,0,1-.69,3.11,5.86,5.86,0,0,0-1.63,1.78c-.21.64-.27,1.07-1.12,1s-1.62,0-2.13-.36a3.63,3.63,0,0,0-1.8-.62c-.61-.08-1.68-.36-1.81-.08s-.46.3-.51.54A7.44,7.44,0,0,1,26,44.8c-.45.54-.6.56-1.25-.23a6.33,6.33,0,0,0-1-1s-1.47,1.65-1.47,1.47-.11-1.91-.12-2.12c-.15-1.8-.46-3.26-.37-3.77s.33-1.37.33-1.37a5.79,5.79,0,0,0,.45-1.27l.68-.52Z"/><path class="cls-2" d="M13.91,44.57s2.77-2.15,2.95-2.45,1.32-1.65,1.47-2a18.69,18.69,0,0,1,1.47-2.94c.21,0,.51-1,1-2s1.12-1.14,1-1.47-.49-2.45-.49-2.45a2.78,2.78,0,0,0,0-1c-.1-.49-1.15-1.73-1-2a9.53,9.53,0,0,0,.49-2c0-.34.59-1.61.49-1.47s0,0,0,0,.16-.23,1-.52c1.08-.37,1-.17,2-.49a20,20,0,0,0,2-1c.57-.25,1.81-1.27,2.45-1.48s1.22-.68,1.47-.49a13.12,13.12,0,0,1,1,1,1.19,1.19,0,0,1-.49,1c-.52.29-1.48,1-1.48,1a2.53,2.53,0,0,1,0,1,2.56,2.56,0,0,1-1,1,2,2,0,0,1-1,0,.87.87,0,0,1-.49,1,2.12,2.12,0,0,0-1,1H24.22l-.49.49-.49,1,.49.49s1.72.27,1.47,0,0-1,0-1l1,.5v1l.49,1-.49.49h-1a2.71,2.71,0,0,0-1.47,1,2.58,2.58,0,0,0-.49,1.47,12.58,12.58,0,0,0,0,1.75l-.48.22a7.68,7.68,0,0,0-1,2.94c.13.4.49,5.4.49,5.4a3.13,3.13,0,0,1-.09.79,6.07,6.07,0,0,0-.42,1.93,4.32,4.32,0,0,1,0,1.36l-1,.34s-1.09.42-1.48-.49-.49-1-.49-1-3-.25-2.94,0-.6,0-1-.5a12,12,0,0,1-1-1.47Z"/><path class="cls-2" d="M36.5,68.13c0,.7.19-2.9.41-2.9a2.6,2.6,0,0,0,1.55-.54l1.47-1s.81-1.39,1.48-1.47.85-.09,1-.49a14.68,14.68,0,0,0,.49-1.47,13.48,13.48,0,0,1,.49-1.48s.18-2,.37-1.83.67.75.54,1.19c-.39,1.2.11,1.51.26,2.14s.36,1.6.42,1.81a1.41,1.41,0,0,0,.62.92c.36.14.66-.19.74.19s0,1.65.34,1.78.11.44.71.62.58.32,1-.13.38-2.76.38-2.76l1-1.47a1.34,1.34,0,0,0,.49,1c.47.28.63.17,1.31.29.4.08.44-.57.66-.78s1.29,0,1.47,0a8,8,0,0,0,1.47,0,2.11,2.11,0,0,1,.82-.09s.46,1.18.17,1.56a1.28,1.28,0,0,0-.21,1c0,.29.23,1.62.23,1.62l.41.58s.55.23,1,2.19a9.24,9.24,0,0,0,1,1.47s-.22,1.34-.49,1.47-.7.84-1,1-.51,1.17-1,1.47-.5.41-1,1-1.2,1.74-1.47,1.47-1.6-1.32-1.47-1.47-.75-1.71-.49-2a10.51,10.51,0,0,0,.49-2.46c0-.23.49-1.47.49-1.47l1-.49V67.15s.9-.41-.49-.49a28.23,28.23,0,0,0-2.95,0s-1,.16-1,.49-.81.19-.49,1-.49,1.47-.49,1.47l-2,.49-.49,1s.16.26-.5,1-1.48.94-1.47,2,.89,1.65.49,2-1.2-.39-1.47-.49-2.38-.25-3-.49-1.29.68-2,.49-1.54-.34-2-.49a6.56,6.56,0,0,1-1-.49s-.55-.51-.49-1a4,4,0,0,0,0-1s-1.3,0-1,.49-.14,2.54-.49,2a7.65,7.65,0,0,1-.62-1.41l.24-2.17a7.9,7.9,0,0,0,1.85-.84c1.25-.7,2-1.18,2-1.47S36.49,67.94,36.5,68.13Z"/><path class="cls-2" d="M21.77,68.13s-.24.07-.49-.49-1.21-1.53-1-1.47.49-.74.49-1-.28-1.35,0-1.58a9,9,0,0,1,.95-.87,2.62,2.62,0,0,1,1.47-.49c.11.06,1-.5,1-.49s.74-.16,1,0,.66-.09.93.32,1.47,2.54,1.66,2.44.24.6.85.18a4,4,0,0,1,2-.49c.39,0,.71.52,1,.49a8.66,8.66,0,0,0,2-.7c.23-.2.75,1.36,1,1.19a2.42,2.42,0,0,1,1-.49,5.74,5.74,0,0,1,1.39.54l-.13.3c-.11,1.26-.09,1-.11,1.26-.11,1.22-.08,1.29-.18,2.42,0,.1-.66.44-1,.69-.67.53-1.09.73-1.42,1s-1.57.4-1.55.68a2.69,2.69,0,0,1,0,1,2.12,2.12,0,0,0,0,1.47c.25.39.59,1.08.59,1.08A5.64,5.64,0,0,0,31.1,75c-.53.22-1.83.77-2.46,1a24.29,24.29,0,0,1-2.45.49,2.1,2.1,0,0,1,.49-1c.32-.23,2.3-.8,2.45-1s1,.09,1-.49.6-.61,0-1a3.75,3.75,0,0,1-1-1s-1.07.25-1,.49-.11,1.26-1,1-2,0-2-.49-.4-1.64-.49-1.48a2.56,2.56,0,0,1-.49.5,1.14,1.14,0,0,0,0,1c.25.51,1.21.43,1,1a.83.83,0,0,1-1,.49c-.09-.1-.94-.62-1-1s-.55-1.15-.49-1.47.69-.75.49-1-1.14-1.35-1-1.47.4,0,.49-.49a3,3,0,0,1,.49-1Z"/><path class="cls-2" d="M11.46,47A1.48,1.48,0,0,1,12,46c.48-.44,2-1.47,2-1.47a3.21,3.21,0,0,0,0,1,4.33,4.33,0,0,0,1,1.47c.64.71.65.45,1.47.5s2,0,2,0a.58.58,0,0,1,.71.36A4.11,4.11,0,0,0,19.8,49h1L21,50.37l1,.86a1.59,1.59,0,0,0,.52.74c.34.2.16.79.16.79a1.06,1.06,0,0,1-.84,1,19.54,19.54,0,0,1-2.27.36s-.82.5-1.22.3-1.84-.27-2,0-1.2,1-1,1h0s-.42-.07-.53.49.35,2.06.07,1.35c-.1-.27-1.37-1-1.44-1.26s-1.09.4-1.09.4.59.79.49,1a3.43,3.43,0,0,1-1.47,1.47c-.72.33-1.58.2-1.47.49s-.15.22-.49.5a4.58,4.58,0,0,0-1,1,4.55,4.55,0,0,1-1,1c-.33.27-.58.69-.68.54s-1.56.87-1.77.44-.26-1.16-1-1-1,0-1,0l-1-1s-.74-.81-.56-1.15-.35-.49.07-.82,1.22,1.08,1.48,1,.86-1.22,1-1,1.47.49,1.47.49-.37.21.49-.49,1.06-.28,1.47-.49-.45-1,.49-1,1.35.44,1.48,0-.32-2.08,0-2,1.41.11,1.47.49.27,1.53.49.49.49-1.58.49-2-.85-1.25-1-1.48-.9.46-1-.49S9.84,51.36,9.5,51s-.69-.72,0-1,1.14-.3,1.47-1A8.18,8.18,0,0,0,11.46,47Z"/><path class="cls-3" d="M43.16,32.86a1.5,1.5,0,0,0-.71-.48,2.45,2.45,0,0,0-.85-.16,2.7,2.7,0,0,0-.48.05,1.91,1.91,0,0,0-.47.18,1.16,1.16,0,0,0-.36.3.81.81,0,0,0-.13.47.78.78,0,0,0,.33.68,3.21,3.21,0,0,0,.83.4l1.08.33a4.68,4.68,0,0,1,1.08.46,2.79,2.79,0,0,1,.83.81,2.5,2.5,0,0,1,.33,1.37,3.12,3.12,0,0,1-.3,1.41,2.9,2.9,0,0,1-.82,1,3.54,3.54,0,0,1-1.2.59,5.15,5.15,0,0,1-1.43.19,5,5,0,0,1-1.76-.29,4.34,4.34,0,0,1-1.52-.93l1.53-1.68a2.29,2.29,0,0,0,.83.68,2.4,2.4,0,0,0,1,.24,2.46,2.46,0,0,0,.53-.06,1.46,1.46,0,0,0,.48-.19.93.93,0,0,0,.34-.31.78.78,0,0,0,.14-.46.83.83,0,0,0-.34-.69,2.94,2.94,0,0,0-.85-.43c-.34-.12-.7-.24-1.1-.36a5.16,5.16,0,0,1-1.1-.48,2.68,2.68,0,0,1-.84-.8,2.26,2.26,0,0,1-.34-1.31A2.89,2.89,0,0,1,39.06,31a3.51,3.51,0,0,1,1.19-.6,4.67,4.67,0,0,1,1.39-.2,5.73,5.73,0,0,1,1.6.23,3.72,3.72,0,0,1,1.39.79Z"/><path class="cls-3" d="M48.67,32.38H45.89v-1.9H53.6v1.9H50.82v7.84H48.67Z"/><path class="cls-3" d="M54.16,35.35a5.51,5.51,0,0,1,.39-2.11,4.52,4.52,0,0,1,1.1-1.62,4.68,4.68,0,0,1,1.66-1,6.33,6.33,0,0,1,4.21,0,4.68,4.68,0,0,1,1.66,1,4.52,4.52,0,0,1,1.1,1.62,5.93,5.93,0,0,1,0,4.23,4.61,4.61,0,0,1-1.1,1.62,4.68,4.68,0,0,1-1.66,1,6.33,6.33,0,0,1-4.21,0,4.68,4.68,0,0,1-1.66-1,4.61,4.61,0,0,1-1.1-1.62A5.52,5.52,0,0,1,54.16,35.35Zm2.23,0a3.62,3.62,0,0,0,.21,1.26,2.82,2.82,0,0,0,1.57,1.65,3.48,3.48,0,0,0,2.49,0,2.82,2.82,0,0,0,1.57-1.65,3.62,3.62,0,0,0,.21-1.26,3.69,3.69,0,0,0-.21-1.25,2.82,2.82,0,0,0-1.57-1.65,3.48,3.48,0,0,0-2.49,0A2.82,2.82,0,0,0,56.6,34.1,3.69,3.69,0,0,0,56.39,35.35Z"/><path class="cls-3" d="M66.13,30.48h3.62a7.3,7.3,0,0,1,1.43.14,3.07,3.07,0,0,1,1.17.48,2.33,2.33,0,0,1,.8.9,3.1,3.1,0,0,1,.3,1.44,3.34,3.34,0,0,1-.28,1.43,2.16,2.16,0,0,1-.76.92,3,3,0,0,1-1.14.49,6.4,6.4,0,0,1-1.43.15H68.27v3.79H66.13Zm2.14,4.13H69.7a3.33,3.33,0,0,0,.56,0,1.46,1.46,0,0,0,.48-.19,1,1,0,0,0,.35-.36,1.2,1.2,0,0,0,.13-.57,1,1,0,0,0-.17-.6,1.36,1.36,0,0,0-.44-.35,1.89,1.89,0,0,0-.6-.15,4.68,4.68,0,0,0-.64,0h-1.1Z"/><path class="cls-3" d="M44.71,49.06a2.18,2.18,0,0,0-.78-.59,2.67,2.67,0,0,0-1.06-.2,2.58,2.58,0,0,0-1.12.23,2.67,2.67,0,0,0-.9.65,3.11,3.11,0,0,0-.59,1,3.86,3.86,0,0,0,0,2.51,3.23,3.23,0,0,0,.58,1,2.72,2.72,0,0,0,.88.66,2.58,2.58,0,0,0,1.08.23A2.36,2.36,0,0,0,44,54.26a2.29,2.29,0,0,0,.84-.77l1.78,1.34A3.72,3.72,0,0,1,45,56.11a5,5,0,0,1-2,.41,5.94,5.94,0,0,1-2.1-.36,5,5,0,0,1-1.67-1,4.82,4.82,0,0,1-1.09-1.62,6,6,0,0,1,0-4.24,4.68,4.68,0,0,1,1.09-1.61,4.84,4.84,0,0,1,1.67-1,6.17,6.17,0,0,1,2.1-.35,5.15,5.15,0,0,1,.86.07,4.59,4.59,0,0,1,.88.24,4.22,4.22,0,0,1,.84.44,3.5,3.5,0,0,1,.71.68Z"/><path class="cls-3" d="M47.24,51.4a5.56,5.56,0,0,1,.39-2.12,4.57,4.57,0,0,1,1.1-1.61,4.7,4.7,0,0,1,1.66-1,6.51,6.51,0,0,1,4.21,0,4.84,4.84,0,0,1,1.67,1,4.68,4.68,0,0,1,1.09,1.61,6,6,0,0,1,0,4.24,4.82,4.82,0,0,1-1.09,1.62,5,5,0,0,1-1.67,1,6.33,6.33,0,0,1-4.21,0,4.83,4.83,0,0,1-1.66-1,4.7,4.7,0,0,1-1.1-1.62A5.52,5.52,0,0,1,47.24,51.4Zm2.23,0a3.62,3.62,0,0,0,.21,1.26,2.9,2.9,0,0,0,1.57,1.65,3.48,3.48,0,0,0,2.49,0,2.82,2.82,0,0,0,1.57-1.65,3.86,3.86,0,0,0,0-2.51,3,3,0,0,0-.61-1,2.91,2.91,0,0,0-1-.65,3.48,3.48,0,0,0-2.49,0,2.77,2.77,0,0,0-1,.65,2.86,2.86,0,0,0-.62,1A3.64,3.64,0,0,0,49.47,51.4Z"/><path class="cls-3" d="M58.25,46.53h2.44l2.41,6.39h0l2.45-6.39h2.29l-4,9.74H62.14Z"/><path class="cls-3" d="M69.42,46.53h2.14v9.74H69.42Z"/><path class="cls-3" d="M74.06,46.53h3.22a9,9,0,0,1,2.23.27,5,5,0,0,1,1.83.84,4.24,4.24,0,0,1,1.25,1.52,5.19,5.19,0,0,1,.46,2.27,4.58,4.58,0,0,1-.45,2.08A4.5,4.5,0,0,1,81.4,55a5.35,5.35,0,0,1-1.75.93,6.8,6.8,0,0,1-2.08.31H74.06Zm2.15,7.76h1.12a6.08,6.08,0,0,0,1.38-.15,3,3,0,0,0,1.1-.5,2.4,2.4,0,0,0,.74-.92,3.27,3.27,0,0,0,.27-1.4,2.67,2.67,0,0,0-.27-1.24,2.49,2.49,0,0,0-.72-.88,3,3,0,0,0-1.07-.51,4.5,4.5,0,0,0-1.28-.18H76.21Z"/><path class="cls-3" d="M88.07,53.67H84.68V52h3.39Z"/><path class="cls-3" d="M91.27,48.84l-2,1.72-1.17-1.34,3.18-2.69h1.92v9.74h-2Z"/><path class="cls-3" d="M98.55,52.79l-.33.07a1.87,1.87,0,0,1-.34,0,3,3,0,0,1-1.26-.25,3,3,0,0,1-1-.67A3.23,3.23,0,0,1,95,51a3.69,3.69,0,0,1-.22-1.25,3.39,3.39,0,0,1,.28-1.37,3.25,3.25,0,0,1,.77-1.05A3.57,3.57,0,0,1,97,46.61a4.38,4.38,0,0,1,2.86,0,3.47,3.47,0,0,1,1.15.68,3,3,0,0,1,.77,1.05,3.23,3.23,0,0,1,.29,1.37,4.72,4.72,0,0,1-.1,1,4.36,4.36,0,0,1-.26.82,4.17,4.17,0,0,1-.37.73c-.14.24-.29.48-.44.72l-2.14,3.33H96.27Zm-1.66-3a1.49,1.49,0,0,0,.43,1.1,1.71,1.71,0,0,0,2.27,0,1.49,1.49,0,0,0,.43-1.1,1.47,1.47,0,0,0-.43-1.09,1.71,1.71,0,0,0-2.27,0A1.47,1.47,0,0,0,96.89,49.79Z"/><path class="cls-4" d="M47,72a7.84,7.84,0,0,1-2,.72,9.85,9.85,0,0,1-2.1.22,6,6,0,0,1-2.11-.36,4.93,4.93,0,0,1-1.66-1A4.84,4.84,0,0,1,38,69.89a6,6,0,0,1,0-4.24A4.7,4.7,0,0,1,39.1,64a4.8,4.8,0,0,1,1.66-1,6,6,0,0,1,2.11-.36,7.71,7.71,0,0,1,2.15.29,4.13,4.13,0,0,1,1.73,1l-1.52,1.65a2.91,2.91,0,0,0-1-.69,3.41,3.41,0,0,0-1.37-.23,3.13,3.13,0,0,0-1.25.23,2.77,2.77,0,0,0-.95.65,2.91,2.91,0,0,0-.62,1,3.86,3.86,0,0,0,0,2.51,3,3,0,0,0,.62,1,2.64,2.64,0,0,0,.95.65,3.13,3.13,0,0,0,1.25.24,4,4,0,0,0,1.21-.16,4.86,4.86,0,0,0,.81-.32V68.84H43.14v-2H47Z"/><path class="cls-4" d="M49.63,62.9h2.15v9.74H49.63Z"/><path class="cls-4" d="M54.37,62.9H60.9v2H56.51v2h4.06v2H56.51v3.8H54.37Z"/><path class="cls-4" d="M70.93,68.89a4.78,4.78,0,0,1-.26,1.59,3.66,3.66,0,0,1-.78,1.27,3.7,3.7,0,0,1-1.29.84,4.83,4.83,0,0,1-1.77.3,4.9,4.9,0,0,1-1.79-.3,3.75,3.75,0,0,1-1.28-.84A3.39,3.39,0,0,1,63,70.48a4.54,4.54,0,0,1-.26-1.59v-6h2.14v5.9a2.24,2.24,0,0,0,.15.84,2,2,0,0,0,.4.67,2,2,0,0,0,.63.44,1.89,1.89,0,0,0,.79.16,1.89,1.89,0,0,0,1.4-.6,2,2,0,0,0,.41-.67,2.47,2.47,0,0,0,.14-.84V62.9h2.15Z"/><circle class="cls-3" cx="52.54" cy="51.35" r="5.12"/><path class="cls-5" d="M55.48,50.73a.62.62,0,0,0-.57.39h-.6a1.78,1.78,0,0,0-.36-.86l.42-.42a.62.62,0,0,0,.69-.13.62.62,0,1,0-.88-.88.63.63,0,0,0-.13.69l-.42.42a1.74,1.74,0,0,0-.86-.36V49a.62.62,0,1,0-.46,0v.59a1.74,1.74,0,0,0-.86.36L51,49.52a.65.65,0,0,0-.13-.69.62.62,0,1,0-.88.88.6.6,0,0,0,.68.13l.42.42a1.77,1.77,0,0,0-.35.86h-.6a.62.62,0,0,0-.57-.39.62.62,0,0,0-.62.62.62.62,0,0,0,1.19.23h.6a1.73,1.73,0,0,0,.35.86l-.42.42A.64.64,0,0,0,50,53a.62.62,0,0,0,.88.88.62.62,0,0,0,.13-.68l.42-.42a1.84,1.84,0,0,0,.86.36v.59a.61.61,0,0,0-.39.57.62.62,0,0,0,1.24,0,.61.61,0,0,0-.39-.57v-.59a1.84,1.84,0,0,0,.86-.36l.42.42a.62.62,0,0,0,.13.68.62.62,0,1,0,.88-.88.65.65,0,0,0-.69-.13L54,52.44a1.74,1.74,0,0,0,.36-.86h.6a.61.61,0,0,0,.57.39.62.62,0,0,0,.62-.62A.62.62,0,0,0,55.48,50.73Z"/></g></svg>