<svg xmlns="http://www.w3.org/2000/svg" viewBox="0 0 111 28"><defs><style>.cls-1,.cls-2{fill:#7ac3dd;}.cls-1{fill-rule:evenodd;}.cls-2{stroke:#7ac3dd;}.cls-2,.cls-3{stroke-miterlimit:10;stroke-width:0.25px;}.cls-3{fill:#39393d;stroke:#39393d;}</style></defs><title>gifu-logo</title><g id="レイヤー_1" data-name="レイヤー 1"><path class="cls-1" d="M22.87,20.15c.49.62.9,1.09.38,1.61s-.55.47-.79.74A2.87,2.87,0,0,0,21.93,24c-.07.49-.2.37-.84.64-1,.42-.71.3-1.41.24-.45,0-.26-.39-1.14-.36s-1.61.88-1.91.61a6.85,6.85,0,0,1-.9-1.08c-.47-.62-.87-1.75-1.41-1.81a10.55,10.55,0,0,0-2.51.4,3.17,3.17,0,0,0-1.23.47c-.4.28-1.25.71-1.09,1.35.39,1.48-.32,1.93-.32,1.93a4.16,4.16,0,0,1-.93-.47,3.73,3.73,0,0,1-.94-.93s-.72-.84-.93-.47a5.1,5.1,0,0,1-.94.93S4.63,24,5,23.53s1-.94.94-1.4.12-.86,0-1.16-.5-.32-.46-.72a.92.92,0,0,0-.18-.65,2.39,2.39,0,0,1-.76-.75c-.14-.37-.47-1.4-.47-1.4a1.2,1.2,0,0,1,.19-1.12L5,15.57c.56-.56.51-.74,1.5-.62s1,.29,1.62.06a4.72,4.72,0,0,1,1.56-.37c.89-.1,1.23-.15,1.41-.47s.68-.44.46-.94a8.75,8.75,0,0,0-.93-1.4s-.75-.34-.74-.55S9.48,10,9.64,10l.92-.32s0-.87,0-1.29.49-2.13.49-2.13l1.4-1.4s.34.29.84.81c.29.31.65,1,1.23.38a1.91,1.91,0,0,0,.74-1.19,5.49,5.49,0,0,1,.94-1.88c.25-.24,1.49-.06,1.49-.06a11.42,11.42,0,0,1,1.78.53,3,3,0,0,0,1.41.34c.51,0,1.66,0,1.66,0a6.57,6.57,0,0,1,.8,1.73A1.32,1.32,0,0,1,23,6a.57.57,0,0,0-.46.63,1.59,1.59,0,0,1-.36,1.23c-.33.51-.61,1.45-.37,1.6.39.24.9.53.9.74a6.77,6.77,0,0,1-.43,1.13,2.6,2.6,0,0,1-.93.94,10.59,10.59,0,0,1-1.72.9s-.06-.16-.16.5a1.37,1.37,0,0,0,.47,1.4c.38.29.78.29,1,.85a2.86,2.86,0,0,0,.95,1.41,1,1,0,0,1,0,1.48s-.62.47.09.8Z"/><path class="cls-2" d="M34.28,23a5.79,5.79,0,0,1-1.51.54,7.13,7.13,0,0,1-1.6.17,4.61,4.61,0,0,1-1.61-.27,3.66,3.66,0,0,1-1.27-.78,3.49,3.49,0,0,1-.84-1.24,4.5,4.5,0,0,1,0-3.23A3.54,3.54,0,0,1,28.29,17a3.84,3.84,0,0,1,1.27-.79,4.61,4.61,0,0,1,1.61-.27,5.71,5.71,0,0,1,1.64.22,3.2,3.2,0,0,1,1.32.74L33,18.14a2.14,2.14,0,0,0-.75-.53,2.67,2.67,0,0,0-1-.18,2.4,2.4,0,0,0-1,.18A2.15,2.15,0,0,0,29,18.87a3,3,0,0,0,0,1.92,2.08,2.08,0,0,0,.47.75,2,2,0,0,0,.73.5,2.4,2.4,0,0,0,1,.18,3.16,3.16,0,0,0,1.54-.37v-1.2H31.38V19.13h2.9Z"/><path class="cls-2" d="M36.54,16.11h1.64v7.43H36.54Z"/><path class="cls-2" d="M40.36,16.11h5v1.51H42v1.51h3.1v1.52H42v2.89H40.36Z"/><path class="cls-2" d="M53,20.68a3.71,3.71,0,0,1-.19,1.22,2.79,2.79,0,0,1-.6,1,2.69,2.69,0,0,1-1,.64,3.74,3.74,0,0,1-1.35.23,3.82,3.82,0,0,1-1.37-.23,2.69,2.69,0,0,1-1-.64,2.62,2.62,0,0,1-.59-1,3.47,3.47,0,0,1-.2-1.22V16.11h1.63v4.5a1.87,1.87,0,0,0,.11.64,1.62,1.62,0,0,0,.31.51,1.45,1.45,0,0,0,.48.34,1.54,1.54,0,0,0,.61.12,1.45,1.45,0,0,0,.59-.12,1.36,1.36,0,0,0,.48-.34,1.62,1.62,0,0,0,.31-.51,1.87,1.87,0,0,0,.11-.64v-4.5H53Z"/><path class="cls-3" d="M31.29,6.89a1.12,1.12,0,0,0-.54-.37,2,2,0,0,0-.65-.12,1.53,1.53,0,0,0-.36,0,1.4,1.4,0,0,0-.36.13.78.78,0,0,0-.27.24.56.56,0,0,0-.11.35.61.61,0,0,0,.25.52,2.24,2.24,0,0,0,.64.3c.25.09.53.17.82.25a3.86,3.86,0,0,1,.83.36,2,2,0,0,1,.63.62,1.88,1.88,0,0,1,.25,1,2.32,2.32,0,0,1-.23,1.08,2.22,2.22,0,0,1-.62.77,2.77,2.77,0,0,1-.91.45,4,4,0,0,1-1.1.15,4.24,4.24,0,0,1-1.35-.22,3.46,3.46,0,0,1-1.15-.72l1.17-1.28a1.61,1.61,0,0,0,.63.52,1.86,1.86,0,0,0,.79.18,1.9,1.9,0,0,0,.41,0,1.05,1.05,0,0,0,.36-.15.78.78,0,0,0,.27-.24.65.65,0,0,0,.1-.34.63.63,0,0,0-.26-.53,2.32,2.32,0,0,0-.65-.33c-.26-.1-.54-.19-.84-.28a3.52,3.52,0,0,1-.84-.37,1.93,1.93,0,0,1-.64-.6,1.79,1.79,0,0,1-.26-1,2.23,2.23,0,0,1,.87-1.81A2.67,2.67,0,0,1,29.08,5a3.4,3.4,0,0,1,1.06-.16,4.07,4.07,0,0,1,1.21.18,2.73,2.73,0,0,1,1.06.6Z"/><path class="cls-3" d="M35.5,6.52H33.38V5.07h5.88V6.52H37.14v6H35.5Z"/><path class="cls-3" d="M39.69,8.79A4.21,4.21,0,0,1,40,7.17a3.66,3.66,0,0,1,.83-1.23,3.61,3.61,0,0,1,1.28-.78,4.34,4.34,0,0,1,1.6-.28,4.43,4.43,0,0,1,1.61.28,3.66,3.66,0,0,1,1.27.78,3.52,3.52,0,0,1,.83,1.23,4.21,4.21,0,0,1,.3,1.62,4.25,4.25,0,0,1-.3,1.62,3.52,3.52,0,0,1-.83,1.23,3.66,3.66,0,0,1-1.27.78,4.65,4.65,0,0,1-1.61.28,4.55,4.55,0,0,1-1.6-.28,3.61,3.61,0,0,1-1.28-.78A3.66,3.66,0,0,1,40,10.41,4.25,4.25,0,0,1,39.69,8.79Zm1.7,0a2.93,2.93,0,0,0,.16,1,2.37,2.37,0,0,0,.47.76,2,2,0,0,0,.73.49,2.6,2.6,0,0,0,1.9,0,2,2,0,0,0,.73-.49,2.37,2.37,0,0,0,.47-.76,2.69,2.69,0,0,0,.16-1,2.76,2.76,0,0,0-.16-1,2.37,2.37,0,0,0-.47-.76,2.11,2.11,0,0,0-.73-.5,2.74,2.74,0,0,0-1.9,0,2.21,2.21,0,0,0-.73.5,2.37,2.37,0,0,0-.47.76A3,3,0,0,0,41.39,8.79Z"/><path class="cls-3" d="M48.83,5.07h2.76a5.44,5.44,0,0,1,1.09.11,2.58,2.58,0,0,1,.9.36,1.86,1.86,0,0,1,.61.69,2.4,2.4,0,0,1,.22,1.1,2.52,2.52,0,0,1-.21,1.09,1.77,1.77,0,0,1-.58.71,2.46,2.46,0,0,1-.87.37,5.29,5.29,0,0,1-1.09.11h-1.2v2.9H48.83Zm1.63,3.15h1.1a2,2,0,0,0,.42,0A1.09,1.09,0,0,0,52.35,8a.77.77,0,0,0,.36-.71.74.74,0,0,0-.13-.46.88.88,0,0,0-.34-.26,1.31,1.31,0,0,0-.45-.13l-.49,0h-.84Z"/><path class="cls-3" d="M62.57,7A1.75,1.75,0,0,0,62,6.55a2.1,2.1,0,0,0-.82-.15,2,2,0,0,0-.85.17,2.15,2.15,0,0,0-.69.5,2.51,2.51,0,0,0-.45.76,2.76,2.76,0,0,0-.16,1,2.69,2.69,0,0,0,.16,1,2.51,2.51,0,0,0,.45.76,2,2,0,0,0,1.49.67A1.83,1.83,0,0,0,62,11a1.7,1.7,0,0,0,.64-.58l1.37,1a2.84,2.84,0,0,1-1.2,1,3.7,3.7,0,0,1-1.49.32,4.65,4.65,0,0,1-1.61-.28,3.51,3.51,0,0,1-2.1-2,4.25,4.25,0,0,1-.3-1.62,4.21,4.21,0,0,1,.3-1.62,3.51,3.51,0,0,1,2.1-2,4.43,4.43,0,0,1,1.61-.28,3.85,3.85,0,0,1,.66.06,4.16,4.16,0,0,1,.67.18,3.2,3.2,0,0,1,.63.34,2.26,2.26,0,0,1,.55.52Z"/><path class="cls-3" d="M64.5,8.79a4.21,4.21,0,0,1,.3-1.62,3.57,3.57,0,0,1,2.11-2,4.37,4.37,0,0,1,1.6-.28,4.43,4.43,0,0,1,1.61.28,3.66,3.66,0,0,1,1.27.78,3.52,3.52,0,0,1,.83,1.23,4.21,4.21,0,0,1,.3,1.62,4.25,4.25,0,0,1-.3,1.62,3.52,3.52,0,0,1-.83,1.23,3.66,3.66,0,0,1-1.27.78,4.65,4.65,0,0,1-1.61.28,4.59,4.59,0,0,1-1.6-.28,3.57,3.57,0,0,1-2.11-2A4.25,4.25,0,0,1,64.5,8.79Zm1.7,0a2.69,2.69,0,0,0,.17,1,2.18,2.18,0,0,0,.46.76,2.13,2.13,0,0,0,.73.49,2.44,2.44,0,0,0,1,.18,2.4,2.4,0,0,0,.95-.18,2,2,0,0,0,.73-.49,2.21,2.21,0,0,0,.47-.76,2.69,2.69,0,0,0,.16-1,2.76,2.76,0,0,0-.16-1,2.21,2.21,0,0,0-.47-.76,2.11,2.11,0,0,0-.73-.5,2.4,2.4,0,0,0-.95-.17,2.43,2.43,0,0,0-1,.17,2.31,2.31,0,0,0-.73.5,2.18,2.18,0,0,0-.46.76A2.77,2.77,0,0,0,66.2,8.79Z"/><path class="cls-3" d="M72.9,5.07h1.87l1.84,4.87h0L78.5,5.07h1.75l-3.06,7.44H75.87Z"/><path class="cls-3" d="M81.43,5.07h1.64v7.44H81.43Z"/><path class="cls-3" d="M85,5.07h2.45a7.2,7.2,0,0,1,1.7.2,3.76,3.76,0,0,1,1.4.65,3.1,3.1,0,0,1,1,1.16,3.79,3.79,0,0,1,.35,1.73,3.41,3.41,0,0,1-1.26,2.75,4.24,4.24,0,0,1-1.33.71,5.19,5.19,0,0,1-1.59.24H85ZM86.61,11h.85a4.42,4.42,0,0,0,1.06-.11,2.45,2.45,0,0,0,.85-.38,2,2,0,0,0,.56-.71,2.57,2.57,0,0,0,.2-1.06,2.15,2.15,0,0,0-.2-1,1.91,1.91,0,0,0-.55-.67,2.23,2.23,0,0,0-.82-.39,3.52,3.52,0,0,0-1-.14h-1Z"/><path class="cls-3" d="M95.67,10.52H93.08V9.26h2.59Z"/><path class="cls-3" d="M98.11,6.84,96.62,8.15l-.89-1,2.42-2h1.47v7.44H98.11Z"/><path class="cls-3" d="M103.88,9.85l-.26.05a1.1,1.1,0,0,1-.26,0,2.24,2.24,0,0,1-1-.19,2,2,0,0,1-.74-.51,2.31,2.31,0,0,1-.47-.77A2.75,2.75,0,0,1,101,7.5a2.41,2.41,0,0,1,.22-1,2.46,2.46,0,0,1,.58-.8,2.77,2.77,0,0,1,.88-.52,3.39,3.39,0,0,1,2.18,0,2.66,2.66,0,0,1,.88.52,2.35,2.35,0,0,1,.59.8,2.56,2.56,0,0,1,.22,1,3.33,3.33,0,0,1-.08.73,3.75,3.75,0,0,1-.19.62,3.29,3.29,0,0,1-.29.56c-.1.18-.22.37-.34.56l-1.63,2.54h-1.92Zm-1.27-2.29a1.14,1.14,0,0,0,.33.84,1.3,1.3,0,0,0,1.73,0,1.22,1.22,0,0,0,0-1.67,1.3,1.3,0,0,0-1.73,0A1.13,1.13,0,0,0,102.61,7.56Z"/></g></svg>